<svg width="155" height="165" viewBox="0 0 155 165" fill="none" xmlns="http://www.w3.org/2000/svg">
<g clip-path="url(#clip0_1:2)">
<rect width="155" height="165" fill="white"/>
<path d="M59.4933 27.5129H62.9395V21.2189H68.5742V27.5129H72V12.5087H68.5742V18.0184H62.9395V12.5087H59.4933V27.5129ZM56.6655 17.2556L57.0368 13.4197C55.6752 12.4663 54.1886 12 52.5581 12C50.4736 12 48.5547 12.8268 47.1306 14.3098C45.7268 15.7935 44.9632 17.7852 44.9632 20.0108C44.9632 22.6177 46.016 24.8635 47.8731 26.3688C49.1941 27.428 50.8042 28 52.5378 28C54.1268 28 55.6541 27.5337 56.8929 26.6652L57.1196 22.6811C55.6541 23.9525 54.1886 24.5886 52.7027 24.5886C50.2055 24.5886 48.4922 22.7235 48.4922 19.9683C48.4922 17.2132 50.2469 15.2848 52.7027 15.2848C54.1479 15.2848 55.4274 15.9417 56.6655 17.2556ZM33.8392 12.5087H30.3923V21.134C30.3923 25.6053 32.7661 28 36.5428 28C40.2782 28 42.6723 25.5844 42.6723 21.1124V12.5087H39.556V21.1124C39.556 23.5078 38.5242 24.7152 36.7078 24.7152C34.7882 24.7152 33.8392 23.4013 33.8392 20.7526V12.5087V12.5087ZM21.6589 15.2423C23.5786 15.2423 24.5275 15.7726 24.5275 17.2772C24.5275 18.6336 23.5989 19.3963 21.8239 19.3963H21.0806V15.2423H21.6589ZM17.6962 27.5129H21.0806V21.6212H21.5761L25.4771 27.5129H29.4602L25.0027 21.0707C26.777 20.2648 27.7266 18.8027 27.7266 16.9167C27.7266 15.6237 27.1076 14.3738 26.0133 13.5686C24.7549 12.6361 23.3097 12.5087 21.4526 12.5087H17.6962V27.5129ZM8.17808 24.8001V20.9433H9.62323C11.0887 20.9433 11.8727 21.6427 11.8727 22.8293C11.8727 24.0583 11.0263 24.8001 9.62323 24.8001H8.17808V24.8001ZM8.17808 18.4429V15.0516H9.25194C10.7792 15.0516 11.5218 15.5395 11.5218 16.6836C11.5218 17.7852 10.7167 18.4429 9.33406 18.4429H8.17808ZM5 27.5129H8.96277C13.0701 27.5129 15.1336 26.0083 15.1336 23.1473C15.1336 21.3038 14.0808 19.9259 12.2854 19.5021C13.8745 18.9084 14.6795 17.8492 14.6795 16.3022C14.6795 13.8226 12.9459 12.5087 9.52006 12.5087H5V27.5129Z" fill="black"/>
<path d="M139.904 52.5144H149V49.3712H143.294V46.4179H148.111V43.3585H143.294V40.658H148.917V37.5779H139.904V52.5144V52.5144ZM125.411 52.5144H128.864V45.6371L134.074 52.5144H138.291L132.337 44.688L137.857 37.5779H133.702L128.864 44.0762V37.5779H125.411V52.5144ZM122.683 42.3041L123.055 38.4855C121.69 37.5357 120.202 37.0715 118.569 37.0715C116.481 37.0715 114.558 37.8945 113.132 39.3715C111.726 40.8479 110.961 42.8313 110.961 45.0461C110.961 47.6413 112.016 49.8776 113.876 51.3754C115.199 52.4305 116.812 53 118.548 53C120.14 53 121.67 52.5358 122.91 51.6705L123.138 47.7044C121.67 48.9701 120.202 49.6033 118.714 49.6033C116.212 49.6033 114.496 47.7466 114.496 45.0039C114.496 42.2618 116.254 40.3421 118.714 40.3421C120.16 40.3421 121.443 40.9961 122.683 42.3041ZM100.025 37.5779H96.5726V46.1643C96.5726 50.6161 98.9495 53 102.733 53C106.475 53 108.873 50.5946 108.873 46.1435V37.5779H105.752V46.1435C105.752 48.5274 104.718 49.7301 102.899 49.7301C100.976 49.7301 100.025 48.4221 100.025 45.7846V37.5779V37.5779ZM103.353 34.2449C103.353 34.9412 103.912 35.4899 104.594 35.4899C105.297 35.4899 105.793 34.9834 105.793 34.2449C105.793 33.5695 105.255 33 104.594 33C103.932 33 103.353 33.5909 103.353 34.2449ZM99.6737 34.2449C99.6737 34.9412 100.211 35.4899 100.893 35.4899C101.596 35.4899 102.113 34.9834 102.113 34.2449C102.113 33.5695 101.555 33 100.893 33C100.232 33 99.6737 33.5909 99.6737 34.2449ZM86.7116 52.5144H90.2051V40.7003H94.836V37.5779H82.0596V40.7003H86.7116V52.5144V52.5144ZM71.1237 48.2953L71.4134 52.2823C72.8806 52.7464 74.163 53 75.2998 53C78.628 53 80.6338 50.9327 80.6338 48.1263C80.6338 45.7424 79.1244 44.6457 76.9949 43.443L75.2787 42.4724C74.5968 42.0928 74.2663 41.6286 74.2663 41.1222C74.2663 40.3837 74.8653 39.9202 75.858 39.9202C76.6433 39.9202 77.925 40.3421 79.4759 41.3335V37.8315C78.0909 37.3458 76.8711 37.0715 75.7751 37.0715C72.8806 37.0715 71 38.8436 71 41.1859C71 42.9581 71.909 44.3291 73.8319 45.4473L74.8246 46.0167C76.3129 46.9028 77.2634 47.3247 77.2634 48.3583C77.2634 49.1814 76.5196 49.8146 75.2583 49.8146C73.853 49.8146 72.6121 49.2236 71.1237 48.2953Z" fill="black"/>
<path d="M34.1146 119.056L19.8685 116.33C16.5337 124.403 16.169 132.016 18.7016 139.571C23.4479 153.735 36.8832 159.944 50.4485 155.672C64.0153 151.398 70.6607 139.53 66.4593 126.995C66.0274 125.708 65.351 124.308 64.5859 122.65L73.4421 119.86L80.3478 140.464L95 139.74L83.145 104.372L48.0046 115.44C50.2655 118.144 51.9529 121.314 53.1899 125.005C55.9813 133.333 53.0054 139.681 46.5988 141.699C40.8515 143.509 35.1371 140.753 33.0363 134.486C31.6263 130.279 32.1082 125.192 34.1146 119.056ZM31.06 86.3244L26.0535 71.3871L56.4962 78.3125L31.06 86.3244ZM6 94.2181L10.3159 107.095L23.5051 102.941L25.6059 109.208L37.4766 105.468L35.3759 99.2024L77.0158 86.0866L72.1823 71.6634L23.1162 60.4487L10.5861 64.3949L19.1893 90.064L6 94.2181ZM61.9103 46.6066L58.3709 36.047L29.8731 36L33.4868 46.6379L61.9103 46.6066Z" fill="black"/>
</g>
<defs>
<clipPath id="clip0_1:2">
<rect width="155" height="165" fill="white"/>
</clipPath>
</defs>
</svg>
