<svg xmlns="http://www.w3.org/2000/svg" width="151.75mm" height="114.41mm" viewBox="0 0 430.16 324.32"><path d="M240,169.37c0,31.93.07,63.86-.06,95.78.35,19.72-6.4,40.19-24.84,49.47-30.95,18-80.95,11.68-94.56-25-5-13.36-9-27.13-12.69-40.92C97,210.35,88.83,171.12,76.82,133.16c-5-12-25.12-10.9-25.49,4.18-.85,57.84-.87,167-.87,167v13.49H39.85l-34.93,0-4.92,0V311S.26,193.28.58,133.58c.07-14.77,2.74-28.69,13.57-40,17-17.7,42.42-20.72,65.36-16.64,25.35,4.84,39,22,45.5,45.67,9.07,33.19,17.73,66.48,26.54,99.74,3.5,13.18,6.78,26.41,10.49,39.53,2.56,9.05,7.67,12.72,15.77,12.23,6.2-.37,10.15-3.39,11-9.54,3.25-73.45-2.4-147.44,2.54-220.82,5-35.65,46.4-49,77.69-41.83,21.55,4.47,36.19,17.43,42.69,38.34,14,46.12,25.4,93,37.75,139.57,2.06,10.09,7.46,22.23,19.92,19.08,5.78-1.14,9.15-5.45,9.43-12.93.65-57.7.8-173.11.8-173.11s.07-6.59.07-6.59,6.33,0,6.36,0c20.77.23,39.43.06,39.43.06l4.68-.06v6.12l-.54,175.39,0,3.58-.05,2.56c-.81,28.06-21.49,51.7-49.36,54.18-30.3,6.07-65.37-8.81-73.24-40.72-14.78-49.16-25.88-99.46-40.42-148.63-3.11-6.87-9.07-9.8-16.32-8.39-10.55,2.18-9.7,14-9.73,24.42l-.17,12.69L240.2,97C239.59,167.14,240,169.37,240,169.37Z"/></svg>